<svg xmlns="http://www.w3.org/2000/svg" xmlns:xlink="http://www.w3.org/1999/xlink" width="50" zoomAndPan="magnify" viewBox="0 0 37.5 37.499999" height="50" preserveAspectRatio="xMidYMid meet" version="1.0"><defs><clipPath id="81a1283671"><path d="M 3.699219 3.699219 L 33.304688 3.699219 L 33.304688 33.304688 L 3.699219 33.304688 Z M 3.699219 3.699219 " clip-rule="nonzero"/></clipPath><clipPath id="d4dca85dc5"><path d="M 5.179688 3.699219 L 31.824219 3.699219 C 32.21875 3.699219 32.59375 3.855469 32.871094 4.132812 C 33.148438 4.410156 33.304688 4.789062 33.304688 5.179688 L 33.304688 31.824219 C 33.304688 32.21875 33.148438 32.59375 32.871094 32.871094 C 32.59375 33.148438 32.21875 33.304688 31.824219 33.304688 L 5.179688 33.304688 C 4.789062 33.304688 4.410156 33.148438 4.132812 32.871094 C 3.855469 32.59375 3.699219 32.21875 3.699219 31.824219 L 3.699219 5.179688 C 3.699219 4.789062 3.855469 4.410156 4.132812 4.132812 C 4.410156 3.855469 4.789062 3.699219 5.179688 3.699219 Z M 5.179688 3.699219 " clip-rule="nonzero"/></clipPath><clipPath id="5e6a6e83f9"><path d="M 6.660156 6.4375 L 30.34375 6.4375 L 30.34375 30.71875 L 6.660156 30.71875 Z M 6.660156 6.4375 " clip-rule="nonzero"/></clipPath><clipPath id="010f35b0f5"><path d="M 8.144531 6.4375 L 28.863281 6.4375 C 29.253906 6.4375 29.632812 6.59375 29.910156 6.871094 C 30.1875 7.148438 30.34375 7.527344 30.34375 7.917969 L 30.34375 29.082031 C 30.34375 29.476562 30.1875 29.851562 29.910156 30.128906 C 29.632812 30.40625 29.253906 30.5625 28.863281 30.5625 L 8.144531 30.5625 C 7.75 30.5625 7.375 30.40625 7.097656 30.128906 C 6.820312 29.851562 6.664062 29.476562 6.664062 29.082031 L 6.664062 7.917969 C 6.664062 7.527344 6.820312 7.148438 7.097656 6.871094 C 7.375 6.59375 7.75 6.4375 8.144531 6.4375 Z M 8.144531 6.4375 " clip-rule="nonzero"/></clipPath></defs><g clip-path="url(#81a1283671)"><g clip-path="url(#d4dca85dc5)"><path stroke-linecap="butt" transform="matrix(0.740132, 0, 0, 0.740132, 3.700658, 3.700658)" fill="none" stroke-linejoin="miter" d="M 1.998333 -0.0019441 L 37.998055 -0.0019441 C 38.531111 -0.0019441 39.037778 0.209167 39.4125 0.583889 C 39.787222 0.958611 39.998333 1.470556 39.998333 1.998334 L 39.998333 37.998056 C 39.998333 38.531112 39.787222 39.037778 39.4125 39.412501 C 39.037778 39.787223 38.531111 39.998334 37.998055 39.998334 L 1.998333 39.998334 C 1.470555 39.998334 0.958611 39.787223 0.583889 39.412501 C 0.209166 39.037778 -0.00194478 38.531112 -0.00194478 37.998056 L -0.00194478 1.998334 C -0.00194478 1.470556 0.209166 0.958611 0.583889 0.583889 C 0.958611 0.209167 1.470555 -0.0019441 1.998333 -0.0019441 Z M 1.998333 -0.0019441 " stroke="#273458" stroke-width="2" stroke-opacity="1" stroke-miterlimit="4"/></g></g><g clip-path="url(#5e6a6e83f9)"><g clip-path="url(#010f35b0f5)"><path stroke-linecap="butt" transform="matrix(0.740132, 0, 0, 0.740132, 6.663454, 6.439141)" fill="none" stroke-linejoin="miter" d="M 2.0011 -0.00221683 L 29.994433 -0.00221683 C 30.522211 -0.00221683 31.034155 0.208894 31.408878 0.583617 C 31.7836 0.958339 31.994711 1.470283 31.994711 1.998061 L 31.994711 30.593061 C 31.994711 31.126117 31.7836 31.632783 31.408878 32.007506 C 31.034155 32.382228 30.522211 32.593339 29.994433 32.593339 L 2.0011 32.593339 C 1.468044 32.593339 0.961378 32.382228 0.586655 32.007506 C 0.211933 31.632783 0.000821949 31.126117 0.000821949 30.593061 L 0.000821949 1.998061 C 0.000821949 1.470283 0.211933 0.958339 0.586655 0.583617 C 0.961378 0.208894 1.468044 -0.00221683 2.0011 -0.00221683 Z M 2.0011 -0.00221683 " stroke="#f4c552" stroke-width="2" stroke-opacity="1" stroke-miterlimit="4"/></g></g></svg>