<svg xmlns="http://www.w3.org/2000/svg" xmlns:xlink="http://www.w3.org/1999/xlink" width="50" zoomAndPan="magnify" viewBox="0 0 37.5 37.499999" height="50" preserveAspectRatio="xMidYMid meet" version="1.0"><defs><clipPath id="b4e41ce726"><path d="M 5.78125 3.699219 L 30.945312 3.699219 L 30.945312 33.304688 L 5.78125 33.304688 Z M 5.78125 3.699219 " clip-rule="nonzero"/></clipPath><clipPath id="a7aa242ba7"><path d="M 18.503906 3.699219 L 31.222656 11.101562 L 31.222656 25.90625 L 18.503906 33.304688 L 5.78125 25.90625 L 5.78125 11.101562 Z M 18.503906 3.699219 " clip-rule="nonzero"/></clipPath><clipPath id="c35940fdf7"><path d="M 8.398438 6.746094 L 28.382812 6.746094 L 28.382812 30.253906 L 8.398438 30.253906 Z M 8.398438 6.746094 " clip-rule="nonzero"/></clipPath><clipPath id="05cc74c8d8"><path d="M 18.5 6.746094 L 28.601562 12.625 L 28.601562 24.378906 L 18.5 30.253906 L 8.398438 24.378906 L 8.398438 12.625 Z M 18.5 6.746094 " clip-rule="nonzero"/></clipPath></defs><g clip-path="url(#b4e41ce726)"><g clip-path="url(#a7aa242ba7)"><path stroke-linecap="butt" transform="matrix(0.740132, 0, 0, 0.740132, 5.782278, 3.700658)" fill="none" stroke-linejoin="miter" d="M 17.188334 -0.0019441 L 34.37278 9.999445 L 34.37278 30.002225 L 17.188334 39.998336 L -0.00138919 30.002225 L -0.00138919 9.999445 Z M 17.188334 -0.0019441 " stroke="#273458" stroke-width="2" stroke-opacity="1" stroke-miterlimit="4"/></g></g><g clip-path="url(#c35940fdf7)"><g clip-path="url(#05cc74c8d8)"><path stroke-linecap="butt" transform="matrix(0.740131, 0, 0, 0.740131, 8.398722, 6.745994)" fill="none" stroke-linejoin="miter" d="M 13.64795 0.000134685 L 27.296285 7.943191 L 27.296285 23.824027 L 13.64795 31.761806 L -0.000385038 23.824027 L -0.000385038 7.943191 Z M 13.64795 0.000134685 " stroke="#f4c552" stroke-width="2" stroke-opacity="1" stroke-miterlimit="4"/></g></g></svg>