<svg xmlns="http://www.w3.org/2000/svg" xmlns:xlink="http://www.w3.org/1999/xlink" width="50" zoomAndPan="magnify" viewBox="0 0 37.5 37.499999" height="50" preserveAspectRatio="xMidYMid meet" version="1.0"><defs><clipPath id="f98b73dc63"><path d="M 3.699219 3.699219 L 33.304688 3.699219 L 33.304688 33.304688 L 3.699219 33.304688 Z M 3.699219 3.699219 " clip-rule="nonzero"/></clipPath><clipPath id="8c2ca42b73"><path d="M 18.503906 3.699219 L 33.304688 15.007812 L 27.652344 33.304688 L 9.355469 33.304688 L 3.699219 15.007812 Z M 18.503906 3.699219 " clip-rule="nonzero"/></clipPath><clipPath id="2604320bf0"><path d="M 6.996094 6.996094 L 29.9375 6.996094 L 29.9375 29.9375 L 6.996094 29.9375 Z M 6.996094 6.996094 " clip-rule="nonzero"/></clipPath><clipPath id="2fa4a43219"><path d="M 18.5 6.996094 L 30.007812 15.785156 L 25.613281 30.007812 L 11.390625 30.007812 L 6.996094 15.785156 Z M 18.5 6.996094 " clip-rule="nonzero"/></clipPath></defs><g clip-path="url(#f98b73dc63)"><g clip-path="url(#8c2ca42b73)"><path stroke-linecap="butt" transform="matrix(0.740132, 0, 0, 0.740132, 3.700658, 3.700658)" fill="none" stroke-linejoin="miter" d="M 20.000834 -0.0019441 L 39.998336 15.277224 L 32.361391 39.998336 L 7.640278 39.998336 L -0.00194478 15.277224 Z M 20.000834 -0.0019441 " stroke="#273458" stroke-width="2" stroke-opacity="1" stroke-miterlimit="4"/></g></g><g clip-path="url(#2604320bf0)"><g clip-path="url(#2fa4a43219)"><path stroke-linecap="butt" transform="matrix(0.740132, 0, 0, 0.740132, 6.994243, 6.994243)" fill="none" stroke-linejoin="miter" d="M 15.545557 0.00250065 L 31.093891 11.877501 L 25.156391 31.093892 L 5.94 31.093892 L 0.00249997 11.877501 Z M 15.545557 0.00250065 " stroke="#f4c552" stroke-width="2" stroke-opacity="1" stroke-miterlimit="4"/></g></g></svg>