<svg xmlns="http://www.w3.org/2000/svg" xmlns:xlink="http://www.w3.org/1999/xlink" width="50" zoomAndPan="magnify" viewBox="0 0 37.5 37.499999" height="50" preserveAspectRatio="xMidYMid meet" version="1.0"><defs><clipPath id="488490a081"><path d="M 3.699219 3.699219 L 33.304688 3.699219 L 33.304688 33.304688 L 3.699219 33.304688 Z M 3.699219 3.699219 " clip-rule="nonzero"/></clipPath><clipPath id="af47d279ff"><path d="M 18.503906 3.699219 C 10.328125 3.699219 3.699219 10.328125 3.699219 18.503906 C 3.699219 26.679688 10.328125 33.304688 18.503906 33.304688 C 26.679688 33.304688 33.304688 26.679688 33.304688 18.503906 C 33.304688 10.328125 26.679688 3.699219 18.503906 3.699219 Z M 18.503906 3.699219 " clip-rule="nonzero"/></clipPath><clipPath id="afdd9968a3"><path d="M 6.773438 6.773438 L 30.226562 6.773438 L 30.226562 30.226562 L 6.773438 30.226562 Z M 6.773438 6.773438 " clip-rule="nonzero"/></clipPath><clipPath id="83f8035e71"><path d="M 18.5 6.773438 C 12.023438 6.773438 6.773438 12.023438 6.773438 18.5 C 6.773438 24.976562 12.023438 30.226562 18.5 30.226562 C 24.976562 30.226562 30.226562 24.976562 30.226562 18.5 C 30.226562 12.023438 24.976562 6.773438 18.5 6.773438 Z M 18.5 6.773438 " clip-rule="nonzero"/></clipPath></defs><g clip-path="url(#488490a081)"><g clip-path="url(#af47d279ff)"><path stroke-linecap="butt" transform="matrix(0.740132, 0, 0, 0.740132, 3.700658, 3.700658)" fill="none" stroke-linejoin="miter" d="M 20.000834 -0.0019441 C 8.954445 -0.0019441 -0.00194478 8.954445 -0.00194478 20.000835 C -0.00194478 31.047225 8.954445 39.998336 20.000834 39.998336 C 31.047224 39.998336 39.998336 31.047225 39.998336 20.000835 C 39.998336 8.954445 31.047224 -0.0019441 20.000834 -0.0019441 Z M 20.000834 -0.0019441 " stroke="#273458" stroke-width="2" stroke-opacity="1" stroke-miterlimit="4"/></g></g><g clip-path="url(#afdd9968a3)"><g clip-path="url(#83f8035e71)"><path stroke-linecap="butt" transform="matrix(0.740132, 0, 0, 0.740132, 6.772204, 6.772203)" fill="none" stroke-linejoin="miter" d="M 15.845557 0.00166793 C 7.095001 0.00166793 0.00166726 7.095002 0.00166726 15.845558 C 0.00166726 24.596114 7.095001 31.689448 15.845557 31.689448 C 24.596113 31.689448 31.689447 24.596114 31.689447 15.845558 C 31.689447 7.095002 24.596113 0.00166793 15.845557 0.00166793 Z M 15.845557 0.00166793 " stroke="#f4c552" stroke-width="2" stroke-opacity="1" stroke-miterlimit="4"/></g></g></svg>